<?xml version="1.0" encoding="utf-8"?>
<!-- Generator: Adobe Illustrator 22.1.0, SVG Export Plug-In . SVG Version: 6.00 Build 0)  -->
<svg version="1.1" id="Layer_1" xmlns="http://www.w3.org/2000/svg" xmlns:xlink="http://www.w3.org/1999/xlink" x="0px" y="0px"
	 viewBox="0 0 512 455.6" style="enable-background:new 0 0 512 455.6;" xml:space="preserve">
<path d="M512,227.8c0-10.8-6-20.6-15.7-25.4l-38.1-19.1l38.1-19.1l0,0c9.7-4.8,15.7-14.6,15.7-25.4c0-10.8-6-20.6-15.7-25.4
	L281.1,5.9c-15.7-7.8-34.5-7.8-50.2,0L15.7,113.4C6,118.3,0,128.1,0,138.8c0,10.8,6,20.6,15.7,25.4l38.1,19.1l-38.1,19.1
	C6,207.3,0,216.9,0,227.8s6,20.6,15.7,25.4l38.1,19.1l-38.1,19.1C6,296.2,0,305.9,0,316.7c0,10.8,6,20.6,15.7,25.4l215.2,107.6
	c7.9,3.9,16.5,5.9,25.1,5.9s17.2-2,25.1-5.9l215.2-107.6c9.7-4.8,15.7-14.6,15.7-25.4s-6-20.5-15.7-25.4l-38.1-19.1l38.1-19.1
	C506,248.3,512,238.6,512,227.8z M26.2,143.1c-2.3-1.2-2.7-3.2-2.7-4.3s0.4-3.2,2.7-4.3L241.4,26.9c4.6-2.3,9.6-3.4,14.6-3.4
	s10,1.1,14.6,3.4l215.2,107.6c2.3,1.2,2.7,3.2,2.7,4.3s-0.3,3.2-2.7,4.3L270.6,250.8c-9.1,4.6-20,4.6-29.1,0L26.2,143.1z
	 M485.8,312.4c2.3,1.2,2.7,3.2,2.7,4.3c0,1.1-0.3,3.2-2.7,4.4L270.6,428.7c-9.1,4.6-20,4.6-29.1,0L26.2,321.1
	c-2.3-1.2-2.7-3.2-2.7-4.4c0-1.1,0.3-3.2,2.7-4.3l53.9-27l150.8,75.4c7.9,3.9,16.5,5.9,25.1,5.9c8.6,0,17.2-2,25.1-5.9l150.8-75.4
	L485.8,312.4z M485.8,232.1L270.6,339.8c-9.1,4.6-20,4.6-29.1,0L26.2,232.1c-2.3-1.2-2.7-3.2-2.7-4.3s0.3-3.2,2.7-4.3l53.9-27
	L230.9,272c7.9,3.9,16.5,5.9,25.1,5.9c8.6,0,17.2-2,25.1-5.9l150.8-75.4l53.9,27c2.3,1.2,2.7,3.2,2.7,4.3
	C488.5,228.8,488.1,230.9,485.8,232.1z"/>
</svg>
